<?xml version="1.0"?>
<svg xmlns="http://www.w3.org/2000/svg" viewBox="0 0 50 50">
    <path style="text-indent:0;text-align:start;line-height:normal;text-transform:none;block-progression:tb;-inkscape-font-specification:Sans" d="M 6 3 C 4.3550302 3 3 4.3550302 3 6 L 3 29 C 3 30.64497 4.3550302 32 6 32 L 18 32 L 18 44 C 18 45.654 19.346 47 21 47 L 44 47 C 45.654 47 47 45.654 47 44 L 47 21 C 47 19.346 45.654 18 44 18 L 32 18 L 32 6 C 32 4.3550302 30.64497 3 29 3 L 6 3 z M 6 5 L 29 5 C 29.56503 5 30 5.4349698 30 6 L 30 18 L 21 18 C 19.346 18 18 19.346 18 21 L 18 30 L 6 30 C 5.4349698 30 5 29.56503 5 29 L 5 6 C 5 5.4349698 5.4349698 5 6 5 z" overflow="visible" font-family="Sans"/>
</svg>
