<?xml version="1.0"?>
<svg xmlns="http://www.w3.org/2000/svg" viewBox="0 0 50 50">
    <path d="M 5 2 C 3.346 2 2 3.346 2 5 L 2 21 C 2 22.654 3.346 24 5 24 L 12 24 L 12 35 C 12 36.64497 13.35503 38 15 38 L 26 38 L 26 45 C 26 46.654 27.346 48 29 48 L 45 48 C 46.654 48 48 46.654 48 45 L 48 29 C 48 27.346 46.654 26 45 26 L 38 26 L 38 15 C 38 13.35503 36.64497 12 35 12 L 24 12 L 24 5 C 24 3.346 22.654 2 21 2 L 5 2 z M 15 14 L 35 14 C 35.56503 14 36 14.43497 36 15 L 36 35 C 36 35.56503 35.56503 36 35 36 L 15 36 C 14.43497 36 14 35.56503 14 35 L 14 15 C 14 14.43497 14.43497 14 15 14 z"/>
</svg>
