<svg width="56" height="57" viewBox="0 0 56 57" fill="none" xmlns="http://www.w3.org/2000/svg">
<g opacity="0.4" clip-path="url(#clip0_3427_289467)">
<path d="M24.9689 7.5C26.3161 5.16667 29.6839 5.16667 31.0311 7.5L52.2487 44.25C53.5959 46.5833 51.9119 49.5 49.2176 49.5H6.78238C4.08808 49.5 2.40414 46.5833 3.75129 44.25L24.9689 7.5Z" fill="white"/>
<path fill-rule="evenodd" clip-rule="evenodd" d="M31.031 7.5C29.6839 5.16667 26.316 5.16667 24.9689 7.5L3.75123 44.25C2.40408 46.5833 4.08802 49.5 6.78232 49.5H49.2176C51.9119 49.5 53.5958 46.5833 52.2487 44.25L31.031 7.5ZM30.8006 33.75V16.95H25.2006V33.75H30.8006ZM28.0006 44.95C29.5406 44.95 30.8006 43.69 30.8006 42.15C30.8006 40.61 29.5406 39.35 28.0006 39.35C26.4606 39.35 25.2006 40.61 25.2006 42.15C25.2006 43.69 26.4606 44.95 28.0006 44.95Z" fill="#A5A9B0"/>
</g>
<defs>
<clipPath id="clip0_3427_289467">
<rect width="56" height="56" fill="white" transform="translate(0 0.5)"/>
</clipPath>
</defs>
</svg>
