<svg width="32" height="32" viewBox="0 0 32 32" fill="none" xmlns="http://www.w3.org/2000/svg">
<path fill-rule="evenodd" clip-rule="evenodd" d="M14.5562 14.6745C14.1156 14.5714 13.7405 14.5048 13.3997 14.4472L13.2751 14.4262C12.5457 14.3037 12.039 14.2185 11.3006 13.868C10.6296 13.5494 10.284 13.0267 10.1317 12.5054C9.96825 11.9457 10.0487 11.469 10.1265 11.3134C10.249 11.0684 10.5308 10.6846 11.029 10.414C11.5141 10.1506 12.2568 9.9655 13.3632 10.1868L13.6377 8.81396C12.2441 8.53523 11.1628 8.74818 10.3608 9.18374C9.572 9.61217 9.10382 10.2283 8.87432 10.6873C8.60013 11.2357 8.55248 12.0921 8.78792 12.898C9.03456 13.7422 9.61501 14.6175 10.7002 15.1327C11.6178 15.5683 12.2923 15.6812 13.0244 15.8038L13.1665 15.8277C13.2329 15.8389 13.3006 15.8504 13.3698 15.8625L14.5562 14.6745ZM18.536 17.8104L19.5441 16.8009C19.5608 16.8124 19.5774 16.8239 19.594 16.8355C20.0548 17.1574 20.5021 17.525 20.8673 17.9285C21.2278 18.3269 21.5402 18.7954 21.6773 19.3217C21.9793 20.4496 21.6335 21.4989 21.0487 22.3184C20.4687 23.1312 19.6227 23.7693 18.7853 24.1398C17.3572 24.7801 15.552 24.9397 13.8248 24.9507C12.9507 24.9562 12.0733 24.9233 11.2473 24.8865C11.0798 24.8791 10.9149 24.8715 10.7526 24.864C10.1713 24.8373 9.62422 24.8121 9.1185 24.8003H9.73275C10.3108 24.802 10.8835 24.6889 11.4176 24.4674C11.9379 24.2516 12.4116 23.9372 12.8126 23.5415C13.1473 23.5491 13.4825 23.5528 13.8159 23.5507C15.5092 23.5399 17.0665 23.3766 18.2139 22.8617L18.2175 22.8601L18.2175 22.8601C18.8522 22.5796 19.4904 22.092 19.9091 21.5052C20.3231 20.9251 20.4908 20.301 20.3244 19.6821L20.3227 19.6758L20.3228 19.6758C20.2635 19.447 20.106 19.1737 19.8292 18.8679C19.5564 18.5664 19.1979 18.2666 18.7922 17.9832C18.708 17.9243 18.6224 17.8667 18.536 17.8104Z" fill="#2A2E39"/>
<path d="M9.78257 20.4441L9.78388 20.4428L21.334 8.87742C21.682 8.54713 22.1431 8.36308 22.6224 8.36308C23.1015 8.36308 23.5624 8.54699 23.9104 8.87704C24.0763 9.04457 24.2082 9.24295 24.2984 9.46111C24.3897 9.68171 24.4367 9.91819 24.4367 10.157C24.4367 10.3959 24.3897 10.6323 24.2984 10.8529C24.2072 11.0735 24.0734 11.2739 23.9048 11.4426L23.9047 11.4427L12.3485 23.0148L12.3471 23.0162C12.0047 23.361 11.5975 23.6342 11.149 23.8202C10.7006 24.0062 10.2197 24.1012 9.73441 24.0998H9.73235H8.70002L8.70002 23.0638L8.70001 23.0618C8.69865 22.5754 8.79365 22.0936 8.97949 21.6442C9.16533 21.1949 9.4383 20.787 9.78257 20.4441Z" stroke="#2A2E39" stroke-width="1.4"/>
<line x1="11.6942" y1="18.7052" x2="14.0942" y2="21.1052" stroke="#2A2E39" stroke-width="1.4"/>
</svg>
