<?xml version="1.0"?>
<svg xmlns="http://www.w3.org/2000/svg" version="1" viewBox="0 0 24 24" enable-background="new 0 0 24 24">
    <path d="M 6.5 3 C 4.6 3 3 4.6 3 6.5 C 3 8.4 4.6 10 6.5 10 C 6.9410714 10 7.3575261 9.9061857 7.75 9.75 L 10.5 12.5 L 8.4375 14.59375 C 7.8779297 14.212305 7.2125 14 6.5 14 C 4.6 14 3 15.6 3 17.5 C 3 19.4 4.6 21 6.5 21 C 8.4 21 10 19.4 10 17.5 C 10 17.338422 9.9910928 17.187689 9.96875 17.03125 L 12.5 14.5 L 18 20 L 22 20 L 9.75 7.75 C 9.9061857 7.3575261 10 6.9410714 10 6.5 C 10 4.6 8.4 3 6.5 3 z M 6.5 5 C 7.3 5 8 5.7 8 6.5 C 8 7.3 7.3 8 6.5 8 C 5.7 8 5 7.3 5 6.5 C 5 5.7 5.7 5 6.5 5 z M 18 5 L 13.5 9.5 L 15.5 11.5 L 22 5 L 18 5 z M 12.5 12 C 12.8 12 13 12.2 13 12.5 C 13 12.8 12.8 13 12.5 13 C 12.2 13 12 12.8 12 12.5 C 12 12.2 12.2 12 12.5 12 z M 6.5 16 C 7.3 16 8 16.7 8 17.5 C 8 18.3 7.3 19 6.5 19 C 5.7 19 5 18.3 5 17.5 C 5 16.7 5.7 16 6.5 16 z"/>
</svg>
