<?xml version="1.0"?>
<svg xmlns="http://www.w3.org/2000/svg" viewBox="0 0 50 50">
    <path d="M 6 6 L 6 12 L 8 12 L 8 29 L 6 29 L 6 35 L 12 35 L 12 33 L 17 33 L 17 38 L 15 38 L 15 44 L 21 44 L 21 42 L 38 42 L 38 44 L 44 44 L 44 38 L 42 38 L 42 21 L 44 21 L 44 15 L 38 15 L 38 17 L 33 17 L 33 12 L 35 12 L 35 6 L 29 6 L 29 8 L 12 8 L 12 6 L 6 6 z M 8 8 L 10 8 L 10 10 L 8 10 L 8 8 z M 31 8 L 33 8 L 33 10 L 31 10 L 31 8 z M 12 10 L 29 10 L 29 12 L 31 12 L 31 29 L 29 29 L 29 31 L 12 31 L 12 29 L 10 29 L 10 12 L 12 12 L 12 10 z M 40 17 L 42 17 L 42 19 L 40 19 L 40 17 z M 33 19 L 38 19 L 38 21 L 40 21 L 40 38 L 38 38 L 38 40 L 21 40 L 21 38 L 19 38 L 19 33 L 29 33 L 29 35 L 35 35 L 35 29 L 33 29 L 33 19 z M 8 31 L 10 31 L 10 33 L 8 33 L 8 31 z M 31 31 L 33 31 L 33 33 L 31 33 L 31 31 z M 17 40 L 19 40 L 19 42 L 17 42 L 17 40 z M 40 40 L 42 40 L 42 42 L 40 42 L 40 40 z"/>
</svg>
