<?xml version="1.0" encoding="iso-8859-1"?>
<!-- Generator: Adobe Illustrator 19.0.0, SVG Export Plug-In . SVG Version: 6.00 Build 0)  -->
<svg version="1.1" id="Layer_1" xmlns="http://www.w3.org/2000/svg" xmlns:xlink="http://www.w3.org/1999/xlink" x="0px" y="0px"
	 viewBox="0 0 202.072 202.072" style="enable-background:new 0 0 202.072 202.072;" xml:space="preserve">
<g>
	<g>
		<g>
			<path d="M200.931,48.072L156.848,3.989c-1.366-1.372-3.542-1.524-5.091-0.362l-41.379,31.036L98.985,23.271
				c-0.963-0.966-2.367-1.358-3.676-1.031c-1.321,0.321-2.378,1.309-2.793,2.605L55.697,140.567l-3.942,3.942l2.098,2.098
				c-0.211,1.233,0.147,2.506,1.049,3.409c0.742,0.742,1.739,1.142,2.755,1.142c0.396,0,0.795-0.061,1.179-0.183l121.235-38.574
				c1.298-0.415,2.283-1.473,2.606-2.793c0.32-1.321-0.069-2.713-1.031-3.676l-11.387-11.386l31.033-41.379
				C202.457,51.614,202.301,49.443,200.931,48.072z M171.607,106.913L67.126,140.158l35.916-35.915
				c3.502,2.953,7.84,4.64,12.477,4.64c5.205,0,10.099-2.028,13.775-5.708c3.68-3.68,5.708-8.571,5.708-13.775
				c0-5.205-2.028-10.097-5.708-13.777c-3.68-3.681-8.569-5.708-13.775-5.708s-10.099,2.028-13.775,5.708
				c-3.68,3.68-5.708,8.571-5.708,13.777c0,3.082,0.79,6.017,2.135,8.693L67.692,128.57l30.311-95.261l9.247,9.247
				c0.002,0.002,0.002,0.004,0.002,0.004l55.105,55.107c0.005,0.005,0.012,0.006,0.016,0.011L171.607,106.913z M103.829,89.401
				c0-3.124,1.218-6.058,3.425-8.267c2.207-2.209,5.141-3.425,8.265-3.425c3.124,0,6.058,1.216,8.265,3.425
				c2.207,2.209,3.425,5.143,3.425,8.267c0,3.122-1.218,6.056-3.425,8.265c-4.414,4.418-12.116,4.418-16.53,0
				C105.047,95.456,103.829,92.523,103.829,89.401z M164.692,88.977l-48.75-48.749l37.784-28.34l39.305,39.304L164.692,88.977z"/>
			<path d="M194.976,167.903h-19.631v-19.483c0-2.154-1.743-3.897-3.897-3.897s-3.897,1.743-3.897,3.897v19.483h-19.483
				c-2.154,0-3.897,1.743-3.897,3.897s1.743,3.897,3.897,3.897h19.483v19.631c0,2.154,1.743,3.897,3.897,3.897
				s3.897-1.743,3.897-3.897v-19.631h19.631c2.154,0,3.897-1.743,3.897-3.897S197.13,167.903,194.976,167.903z"/>
			<path d="M38.966,164.005c0-2.154-1.743-3.897-3.897-3.897h-11.69v-23.379h-7.793v23.379H3.897c-2.154,0-3.897,1.743-3.897,3.897
				v31.172c0,2.154,1.743,3.897,3.897,3.897h31.172c2.154,0,3.897-1.743,3.897-3.897v-11.69h23.379v-7.793H38.966V164.005z
				 M31.172,191.281H7.793v-23.379h23.379V191.281z"/>
		</g>
	</g>
</g>
<g>
</g>
<g>
</g>
<g>
</g>
<g>
</g>
<g>
</g>
<g>
</g>
<g>
</g>
<g>
</g>
<g>
</g>
<g>
</g>
<g>
</g>
<g>
</g>
<g>
</g>
<g>
</g>
<g>
</g>
</svg>
